HIERARCHY
ROOT Hips
{
  OFFSET 265.287 66.7526 -254.649
  CHANNELS 6 Xposition Yposition Zposition Zrotation Xrotation Yrotation
  JOINT LeftUpLeg
  {
    OFFSET 8.64259 1.95398 -2.38835
    CHANNELS 3 Zrotation Xrotation Yrotation
    JOINT LeftLeg
    {
      OFFSET 43.7702 0 0
      CHANNELS 3 Zrotation Xrotation Yrotation
      JOINT LeftFoot
      {
        OFFSET 40.6238 0 0
        CHANNELS 3 Zrotation Xrotation Yrotation
        JOINT LeftToeBase
        {
          OFFSET 12.7242 0 0
          CHANNELS 3 Zrotation Xrotation Yrotation
          End Site
          {
            OFFSET 0 0 0
          }
        }
      }
    }
  }
  JOINT RightUpLeg
  {
    OFFSET -8.2249 1.95398 -2.59336
    CHANNELS 3 Zrotation Xrotation Yrotation
    JOINT RightLeg
    {
      OFFSET 43.5653 0 0
      CHANNELS 3 Zrotation Xrotation Yrotation
      JOINT RightFoot
      {
        OFFSET 40.6238 0 0
        CHANNELS 3 Zrotation Xrotation Yrotation
        JOINT RightToeBase
        {
          OFFSET 12.7242 0 0
          CHANNELS 3 Zrotation Xrotation Yrotation
          End Site
          {
            OFFSET 0 0 0
          }
        }
      }
    }
  }
  JOINT Spine
  {
    OFFSET 0.165834 0.87714 6.61349
    CHANNELS 3 Zrotation Xrotation Yrotation
    JOINT Spine1
    {
      OFFSET 7.38963 1.71661e-005 0
      CHANNELS 3 Zrotation Xrotation Yrotation
      JOINT Spine2
      {
        OFFSET 11.9445 1.14441e-005 0
        CHANNELS 3 Zrotation Xrotation Yrotation
        JOINT Spine3
        {
          OFFSET 14.7254 4.19617e-005 0
          CHANNELS 3 Zrotation Xrotation Yrotation
          JOINT Spine4
          {
            OFFSET 10.9679 0 0
            CHANNELS 3 Zrotation Xrotation Yrotation
            JOINT RightShoulder
            {
              OFFSET 2.46616 -1.6653 3.69651
              CHANNELS 3 Zrotation Xrotation Yrotation
              JOINT RightArm
              {
                OFFSET 13.0012 0 0
                CHANNELS 3 Zrotation Xrotation Yrotation
                JOINT RightForeArm
                {
                  OFFSET 28.7848 1.52588e-005 0
                  CHANNELS 3 Zrotation Xrotation Yrotation
                  JOINT RightHand
                  {
                    OFFSET 26.5688 1.52588e-005 0
                    CHANNELS 3 Zrotation Xrotation Yrotation
                    End Site
                    {
                      OFFSET 0 0 0
                    }
                  }
                }
              }
            }
            JOINT LeftShoulder
            {
              OFFSET 2.38034 -1.29275 -3.7523
              CHANNELS 3 Zrotation Xrotation Yrotation
              JOINT LeftArm
              {
                OFFSET 16.3182 6.10351e-005 0
                CHANNELS 3 Zrotation Xrotation Yrotation
                JOINT LeftForeArm
                {
                  OFFSET 27.0901 0 0
                  CHANNELS 3 Zrotation Xrotation Yrotation
                  JOINT LeftHand
                  {
                    OFFSET 24.5451 1.52588e-005 0
                    CHANNELS 3 Zrotation Xrotation Yrotation
                    End Site
                    {
                      OFFSET 0 0 0
                    }
                  }
                }
              }
            }
            JOINT Neck
            {
              OFFSET 5.0226 -0.0266342 0
              CHANNELS 3 Zrotation Xrotation Yrotation
              JOINT Head
              {
                OFFSET 6.69364 2.86102e-005 0
                CHANNELS 3 Zrotation Xrotation Yrotation
                End Site
                {
                  OFFSET 0 0 0
                }
              }
            }
          }
        }
      }
    }
  }
}
MOTION
Frames:	17
Frame Time:	0.0416667
-127.623 85.1903 -32.6786 104.163 69.4547 84.6913 178.106 24.727 102.069 -64.3488 26.3788 7.89761 74.5111 14.9049 26.7912 54.1912 -6.93268 7.27216 176.59 35.4777 80.3901 -81.3997 -11.3217 -3.48491 53.9086 2.21278 3.82765 44.9678 -2.51716 -6.09841 -0.858537 9.68107 -89.0501 7.51991 -1.30223 1.94254 -4.15189 -1.2155 1.99795 -26.6852 -1.82579 1.46146 -6.67257 -1.82579 1.46146 100.873 -48.8785 -84.2065 18.52 5.81716 -19.0514 10.0836 10.2936 -59.3385 -8.45032 0.267818 -9.49326 -92.4296 -47.1096 74.1242 -19.9044 26.3663 -50.9203 4.3792 1.9573 -39.3803 7.9785 -0.54826 -9.41369 -2.99732 -24.9523 -4.79698 -8.50572 -22.8359 -33.6124 
-117.238 85.7906 -22.361 104.223 54.027 79.7661 -169.439 21.3454 108.961 -53.549 24.5848 5.02243 64.0777 5.15239 12.4309 61.537 -8.36131 9.04375 -177.905 31.4548 68.9851 -80.1483 -1.38922 -6.92835 55.9452 -0.586801 3.49878 46.5744 -2.89824 -7.46528 -0.799665 8.78549 -88.6183 9.3069 -0.97444 2.809 -2.36681 -0.84993 2.84912 -24.8862 -1.7734 2.38665 -4.87351 -1.77339 2.38666 100.519 -49.5049 -84.7485 28.8963 -10.288 -5.14587 -13.2635 0.308901 -77.3135 -8.9851 0.122026 -7.13451 -91.0858 -51.1867 77.1377 -10.0286 32.6963 -60.8285 15.4242 -1.68718 -65.2737 7.61827 -0.408331 -8.00448 1.57584 -24.9069 1.25036 -13.3172 -21.9469 -35.5203 
-104.195 88.6522 -12.3758 97.9522 36.4014 84.0684 -166.529 5.15024 112.812 -28.9468 12.4517 9.77944 44.6324 -4.32668 -6.03003 63.5954 -7.14955 16.6749 175.419 32.9903 68.6811 -67.7872 5.51674 -5.11511 53.4426 0.991876 4.57634 48.4084 -3.2333 -6.35479 -1.08036 7.70218 -89.6009 11.5006 -1.96271 0.992285 -0.168945 -1.91715 1.07772 -22.7175 -2.17012 0.356313 -2.70487 -2.1701 0.356311 96.4466 -48.9465 -91.1912 32.3734 -20.6179 9.67527 -19.4073 -6.94498 -63.7444 -5.95474 0.119666 -8.31319 -86.812 -52.1112 83.6044 -7.23691 22.6453 -51.8442 21.549 -7.9367 -82.5375 7.44416 -0.350936 -7.39479 7.93926 -19.0311 11.0456 -13.7296 -18.5346 -29.4319 
-90.9805 89.6131 -1.03569 94.1796 15.0987 81.787 -168.701 -0.980982 105.673 -40.0451 13.2191 7.87871 40.3852 -6.52253 0.686162 57.7092 -7.97098 6.34103 170.968 32.5929 73.0177 -61.9603 -2.7664 -1.90846 49.7019 5.01781 11.3838 58.9265 -4.84344 -3.83114 -0.468625 7.94036 -90.6053 10.9761 -1.21263 -1.08076 -0.694879 -1.25901 -1.02636 -23.2281 -0.831805 -1.39521 -3.21548 -0.831823 -1.39522 95.3831 -48.7065 -92.8976 24.1714 -14.7554 4.43094 -5.58136 -5.16284 -48.6787 -11.5824 0.0580528 -6.0329 -84.6355 -54.2801 87.069 -6.42373 4.1495 -27.7119 17.7447 -4.49368 -69.1658 9.89934 -0.314856 -6.45617 19.8676 -11.5395 15.3837 -13.7978 -14.2874 -17.617 
-80.3439 88.408 11.0265 89.4756 -7.75129 79.3217 -162.85 12.4872 97.1617 -74.1048 10.7854 -0.930842 49.2239 -1.05166 11.9181 55.2987 -7.15465 7.63712 171.538 31.5269 80.1469 -64.7051 -10.0129 -0.608177 62.2668 0.0756977 4.38696 63.1022 -4.35718 3.2704 0.427393 8.97794 -90.7222 8.919 0.531161 -1.46694 -2.75272 0.466073 -1.4889 -25.2834 0.947454 -1.23953 -5.27074 0.947443 -1.23954 95.8948 -49.4574 -91.9939 18.0782 -12.747 -17.6779 -4.3263 -6.94168 -42.5976 -13.5542 0.0192833 -5.48882 -84.7195 -54.3121 86.9487 -2.12217 6.93434 -6.16222 10.0364 6.60028 -34.739 16.4219 -0.313071 -5.71206 27.6395 -5.01699 14.0759 -10.3672 -9.59884 -8.97661 
-67.9384 88.0081 24.2312 81.5126 -25.2115 83.0007 -162.578 39.0851 87.0943 -95.2929 11.8153 -0.114975 54.4506 1.70665 15.7944 53.4299 -7.57261 0.199355 171.912 22.6748 89.0135 -57.3075 -15.2152 1.93271 70.4227 -2.25364 8.71708 53.3525 -2.70658 8.06524 1.46834 9.27122 -90.9221 8.35049 2.52411 -1.9759 -3.31967 2.43471 -2.08508 -25.8697 3.00116 -1.12561 -5.857 3.00115 -1.12562 95.5008 -46.9975 -92.9378 14.9557 -15.3212 -31.9883 -8.06084 -5.53172 -53.6691 -9.6307 0.0157699 -5.63907 -84.6463 -54.5072 87.076 -11.8085 16.4331 9.90397 3.22808 22.5489 -15.1026 18.5587 0.458615 -1.39767 29.3799 -2.63333 9.80186 -10.1024 -6.22321 -2.98294 
-53.8246 89.9691 40.2595 73.8434 -33.1933 76.9883 -162.596 57.1185 76.8194 -86.0771 14.4184 -1.03013 56.4846 1.14465 12.741 50.1441 -6.88402 -3.27565 173.916 3.73619 88.9748 -29.5966 -14.1709 0.684858 58.9412 4.04282 28.252 42.6759 -2.02212 7.23335 1.97463 9.15257 -89.8286 8.56025 4.01604 0.089471 -3.10452 4.0161 -0.087664 -25.6852 3.80313 1.29409 -5.67256 3.80313 1.29409 98.1191 -44.5859 -88.9251 15.3397 -15.4432 -32.5157 -8.29127 0.235367 -69.4044 -9.9967 0.217728 -8.08402 -86.586 -49.5018 83.5464 -26.2185 13.4821 25.6536 2.1911 22.0556 -13.0756 19.2874 0.585395 -0.864231 29.0272 -5.58755 1.55198 -10.7126 -5.85754 -1.27451 
-39.4241 91.7386 55.8359 72.6901 -34.7106 80.9481 -162.82 55.4511 76.2275 -58.6381 18.6595 -5.03574 52.8457 -2.0698 7.73209 47.4958 -6.1074 -4.74507 176.568 -6.71716 96.8643 -23.2372 -15.5988 -0.206997 21.6528 11.6214 41.1113 39.6376 -1.63635 2.10529 1.71996 9.53357 -89.9028 7.81718 3.47647 -0.0106336 -3.84921 3.4726 -0.163803 -26.4192 3.31885 1.03583 -6.40661 3.31882 1.03582 98.9986 -46.2361 -87.3372 15.1311 -9.86806 -24.8213 -10.4649 -0.563521 -71.3023 -11.2037 0.224744 -7.83307 -88.723 -50.3703 80.4779 -28.2319 14.2009 20.3793 -0.277539 20.7084 -9.10389 18.2255 0.145363 -3.05532 32.0557 -5.53231 -2.10712 -11.6117 -4.40358 0.254964 
-24.0939 90.815 70.8162 77.4257 -34.2911 84.9644 -164.563 37.8795 76.0009 -44.2022 19.6154 -9.2974 52.9883 -2.03937 14.8676 36.4376 -1.96379 -8.67292 173.669 8.057 88.2082 -82.5522 -20.3218 -2.09933 36.063 11.6665 21.1812 20.6428 1.22428 0.169243 0.903003 10.3154 -90.0387 6.24284 1.7874 -0.1323 -5.4269 1.77984 -0.210881 -27.9713 1.74448 0.411162 -7.95863 1.74449 0.411162 98.4692 -49.262 -87.9782 14.4151 -4.76439 -15.0474 -9.04943 -5.89106 -52.2606 -11.6204 0.149729 -6.92628 -88.2454 -53.6094 81.7607 -16.9493 15.4429 4.14106 1.78416 11.3887 -15.8484 20.3871 0.0147564 -3.87039 33.0898 -3.25271 -4.36238 -9.28543 -1.42115 3.96817 
-8.41132 86.7782 86.2959 76.3629 -34.509 84.3211 -173.376 22.2591 77.4815 -45.0506 24.3779 -4.25896 72.3672 14.5483 33.5727 40.2966 -3.52553 -7.70135 175.617 39.8449 89.4041 -120.195 -12.1968 -3.98433 42.4072 6.83175 4.40831 29.6421 0.525419 -6.02316 0.585822 10.0386 -89.9516 6.79653 1.19095 0.0473943 -4.87387 1.1919 -0.00508372 -27.413 1.12163 0.403177 -7.40038 1.12164 0.403175 98.7728 -52.0095 -87.3255 15.2935 1.03387 4.99562 -8.41003 -13.1008 -34.8352 -11.293 -0.258021 -2.62281 -85.2426 -54.1327 86.1736 -3.4113 6.74261 -18.0694 2.59266 -0.832751 -27.6099 26.6901 -0.362493 -5.41909 30.7051 -2.56354 -5.80748 -8.28796 -0.264961 4.32251 
7.53306 87.025 102.752 74.8814 -23.9033 84.2926 -177.836 6.73828 83.8711 -37.2209 30.0669 2.02402 69.0061 10.5396 22.2485 47.0533 -5.92244 -4.03187 177.377 63.6097 83.7667 -111.575 -15.3643 -3.92161 49.413 5.45061 10.8825 47.4961 -2.69767 -3.00689 -0.473212 9.51726 -90.2215 7.84806 -1.04165 -0.376671 -3.82237 -1.05721 -0.330463 -26.3611 -0.880271 -0.672319 -6.34847 -0.880286 -0.672336 99.7284 -50.7369 -85.9384 21.5004 4.36938 31.2527 -8.48485 -12.6057 -32.6201 -8.57394 -0.15229 -3.30536 -85.1447 -49.6445 85.7554 -6.18833 -7.804 -39.2019 8.99476 -2.08456 -55.9219 26.0033 -1.03348 -8.09092 24.2968 -2.82618 -6.06739 -6.41483 -0.644129 1.49491 
27.2167 90.4213 120.077 74.3306 -24.6754 89.3712 -177.614 -6.68707 92.3313 -33.4223 25.1304 8.36786 39.3954 -7.09696 -0.972032 57.3562 -9.05212 -1.40079 174.274 60.3241 89.9099 -64.4416 -19.8103 -0.298939 51.7153 5.93651 10.2962 60.0705 -3.83493 4.70251 -1.15621 9.25422 -90.6942 8.34589 -2.6133 -1.21804 -3.32293 -2.66436 -1.1018 -25.8678 -2.12641 -1.94725 -5.85517 -2.12642 -1.94725 97.0349 -48.9937 -90.252 29.5878 -0.0100857 43.419 -2.64435 -5.44341 -32.901 -6.75228 0.0015976 -5.6597 -82.4901 -46.3572 89.5053 -6.98565 -10.7708 -43.0763 10.6133 -5.88108 -83.3326 24.288 -0.763023 -7.21185 19.4858 0.407988 -9.91459 -10.3739 3.09922 5.80101 
47.3237 89.5624 136.668 79.0023 -27.2701 89.9635 177.198 -7.26188 89.973 -71.344 20.66 5.2739 42.6028 -5.4156 2.73022 54.0915 -7.89229 -0.803396 172.83 46.6707 87.4588 -31.0767 -13.3291 4.73775 41.2322 10.926 19.0809 71.4215 -4.80109 5.49093 -1.36129 9.63109 -90.5602 7.59758 -2.96093 -0.953134 -4.07027 -2.99997 -0.821788 -26.6238 -2.53757 -1.79938 -6.6112 -2.53758 -1.79937 97.1046 -51.5958 -89.8982 32.6832 -1.20653 40.8084 2.5644 4.47689 -36.146 -2.56583 0.00262904 -6.86504 -83.2086 -46.8812 88.4215 -6.55124 0.227234 -32.917 9.28629 -6.45577 -78.9426 21.2188 -0.554572 -6.57218 18.8972 1.79201 -9.56894 -12.0188 3.98794 8.92456 
66.0432 86.3017 151.829 81.2578 -34.7474 95.0912 178.831 11.867 92.805 -114.882 13.5393 0.516458 45.2391 -2.43103 12.4424 47.8244 -6.09955 -3.37631 165.6 42.3117 96.108 -53.4047 -18.9078 7.57169 59.3661 3.01825 11.2229 39.4179 -1.57388 1.89175 -0.656048 9.94196 -91.1997 6.96592 -1.82459 -2.28681 -4.70562 -1.92344 -2.20433 -27.2289 -1.05327 -2.72917 -7.21621 -1.05326 -2.72918 99.1843 -55.8791 -86.4964 25.2902 -4.70174 20.3595 8.33132 12.1256 -43.2861 -4.67654 0.0729367 -7.92567 -84.7298 -53.8603 86.8825 -13.0558 4.64144 -19.3838 12.3385 3.2203 -43.5087 18.6651 -0.851302 -8.46556 27.4787 3.03266 -10.6614 -14.3978 5.58562 14.2656 
85.4108 84.8369 167.028 80.1478 -41.2406 97.2253 166.433 41.3296 102.324 -124.801 16.0985 -0.603086 48.9047 -1.86317 14.9455 47.4656 -6.05133 -4.47255 171.236 27.9646 98.0102 -58.4604 -21.085 5.17187 69.7088 -2.96997 5.08742 54.6752 -3.5031 2.30237 0.139343 9.75036 -91.5061 7.3719 -0.372415 -2.97033 -4.30232 -0.502749 -2.9511 -26.8115 0.5372 -2.94503 -6.79889 0.537201 -2.94502 99.1824 -52.9194 -86.6501 20.9674 -4.14952 -2.95666 6.46637 8.36514 -57.4236 -6.30007 0.0705911 -7.00785 -86.0194 -56.6143 85.381 -16.1256 10.691 -2.31132 4.73885 10.5693 -18.8559 18.0163 -0.177496 -4.82734 32.5136 3.67821 -12.5973 -18.2718 6.7012 16.5809 
107.226 88.1215 184.207 76.8672 -45.2681 85.5564 169.017 55.6372 98.9381 -93.5775 6.6893 2.08442 56.2979 2.24263 17.0753 48.4746 -6.11692 -1.15248 175.885 1.39555 90.6804 -35.121 -20.5194 -2.09512 59.7126 2.03449 10.449 61.4818 -4.97473 -1.27142 0.820891 8.93563 -90.2176 9.01912 1.54031 -0.54692 -2.65093 1.51475 -0.614197 -25.1945 1.63347 -0.0585839 -5.18183 1.63346 -0.0585957 100.725 -49.3413 -84.431 19.076 -7.65168 -7.76527 7.9735 7.35308 -72.9938 -6.35919 0.167127 -9.15233 -85.4816 -52.011 85.5436 -22.488 13.3803 15.4106 2.39019 14.4968 -14.3444 14.2779 -0.240004 -5.58798 28.1664 1.10907 -11.2577 -19.2992 3.60316 12.8668 
128.598 90.925 200.938 79.4683 -40.3752 85.6514 175.552 49.5139 93.7475 -38.4495 16.2973 4.15091 46.9245 -3.54737 7.6979 51.4987 -7.9871 -8.61126 174.683 -13.5017 87.0196 -39.4776 -21.576 -3.66344 45.8308 7.93375 14.2322 52.6968 -4.0549 -4.4417 0.904446 8.58741 -90.1097 9.7037 1.75358 -0.350948 -1.96611 1.73644 -0.427814 -24.5109 1.77796 0.192471 -4.49823 1.77794 0.192454 101.872 -48.8141 -82.6304 18.2864 -7.19763 -1.0612 1.36275 5.46236 -74.8803 -1.7224 0.0116599 -8.19752 -86.2451 -50.8148 84.2573 -20.0677 11.763 24.4075 0.947213 6.85403 -15.161 11.9668 -0.556706 -8.05564 20.366 -0.971968 -4.8358 -15.4996 0.17372 4.22907 
